<svg width="32" height="23" viewBox="0 0 32 23" fill="none" xmlns="http://www.w3.org/2000/svg">
	<path fill-rule="evenodd" clip-rule="evenodd" d="M8.12631 1.27344L0.922349 10.34L0 11.4991L0.922349 12.6582L8.12631 21.7248V17.0867L3.68664 11.4991L8.12631 5.91155V1.27344ZM23.8751 21.7265L31.079 12.66L32 11.5009L31.079 10.3418L23.8751 1.27344V5.91155L28.3147 11.4991L23.8751 17.0867V21.7265Z" fill="white" />
	<path fill-rule="evenodd" clip-rule="evenodd" d="M13.0251 3.74584L12.5956 4.2864L7.78563 10.34L6.86328 11.4991L7.78563 12.66L15.0791 21.8409L16.0014 23L16.9224 21.8409L24.2172 12.66L25.1382 11.4991L24.2172 10.34L16.0014 0L14.1581 2.31992L21.4529 11.4991L16.0014 18.3602L10.5499 11.4991L14.4389 6.6046L14.8684 6.06576L13.0251 3.74584Z" fill="white" />
</svg>
