<svg width="1319" height="261" viewBox="0 0 1319 261" fill="none" xmlns="http://www.w3.org/2000/svg">
<path d="M0 1.61011H65.57V22.0001H23.33V43.4201H59.71V63.0801H23.33V87.4301H67.19V107.82H0V1.61011Z" fill="white"/>
<path d="M82.3008 1.61011H104.301L136.131 44.4501C143.021 53.6901 149.481 62.6401 156.081 71.8801H156.371C156.221 61.6101 156.081 51.3401 156.081 41.0701V1.61011H178.521V107.82H156.521L124.691 64.9801C117.801 55.7401 111.341 46.7901 104.741 37.5501H104.451C104.601 47.8201 104.741 58.0901 104.741 68.3601V107.82H82.3008V1.61011Z" fill="white"/>
<path d="M197.901 1.61011H236.921C248.361 1.61011 257.311 3.52011 264.651 8.80011C271.991 14.0801 276.971 22.7401 276.971 34.3301C276.971 48.4101 269.341 59.1201 256.431 64.1101L285.331 107.83H258.631L232.521 67.4901H221.221V107.83H197.891V1.62006L197.901 1.61011ZM235.601 48.9901C241.471 48.9901 245.431 48.2601 248.661 46.0601C251.891 43.8601 253.651 39.7501 253.651 35.3501C253.651 30.6601 251.741 26.6901 248.661 24.4901C245.581 22.2901 241.471 21.5601 235.601 21.5601H221.221V48.9901H235.601Z" fill="white"/>
<path d="M293.699 1.61011H317.029V107.82H293.699V1.61011Z" fill="white"/>
<path d="M389.349 109.43C355.319 109.43 331.699 85.96 331.699 55.01C331.699 24.06 355.469 0 389.499 0C400.799 0 411.499 2.64002 419.869 7.33002V30.36C411.799 24.64 401.089 20.82 390.379 20.82C369.549 20.82 355.169 35.34 355.169 54.56C355.169 73.78 369.249 88.59 391.259 88.59C402.119 88.59 412.529 84.78 420.749 78.91V101.79C411.949 106.92 400.209 109.42 389.359 109.42L389.349 109.43Z" fill="white"/>
<path d="M435.561 1.61011H458.881V50.0201L459.171 50.1701L497.171 1.61011H524.601L483.521 52.3701L527.091 107.82H498.481L459.161 55.8901L458.871 56.0401V107.82H435.551V1.61011H435.561Z" fill="white"/>
<path d="M563.779 60.1401L522.699 1.61011H550.129L563.039 20.8301C567.289 27.1401 571.839 34.0301 575.659 39.9001H575.949C579.759 33.8901 584.159 27.2801 588.569 20.6801L601.329 1.61011H627.879L587.099 60.0001V107.82H563.769V60.1401H563.779Z" fill="white"/>
<path d="M663.209 1.61011H700.759C711.759 1.61011 720.269 3.22006 727.169 8.06006C734.069 12.9001 738.759 20.2401 738.759 30.2101C738.759 40.1801 733.769 47.9601 725.119 51.9201V52.2101C736.559 56.0201 742.719 65.1201 742.719 76.7101C742.719 87.2701 738.019 95.1901 730.689 100.47C723.359 105.75 714.109 107.8 702.519 107.8H663.199V1.59009L663.209 1.61011ZM701.499 45.3301C709.709 45.3301 715.439 40.9301 715.439 33.4501C715.439 28.9001 713.529 25.8201 710.749 23.9101C707.969 22.0001 704.739 21.2701 698.719 21.2701H686.399V45.3301H701.509H701.499ZM714.119 85.2301C717.349 83.1801 719.399 79.8001 719.399 74.9601C719.399 66.7501 713.089 62.0501 704.289 62.0501H686.389V88.1601H701.059C707.219 88.1601 710.889 87.2801 714.119 85.2301Z" fill="white"/>
<path d="M756.949 1.61011H780.279V107.82H756.949V1.61011Z" fill="white"/>
<path d="M832.939 1.61011H856.709L899.249 107.82H874.309L865.649 85.5201H822.959L814.299 107.82H790.389L832.929 1.61011H832.939ZM858.759 67.1801L854.509 55.7401C851.279 46.9401 847.469 36.3801 844.829 28.4501H844.539C841.609 36.8101 837.939 46.9301 834.419 55.8801L830.019 67.1701H858.769L858.759 67.1801Z" fill="white"/>
<path d="M901.888 107.82L901.738 107.53L952.058 22.3002L951.908 22.0101H906.428V1.62012H990.338L990.488 1.91016L940.168 87.1401L940.318 87.4302H989.168V107.82H901.878H901.888Z" fill="white"/>
<path d="M1038.91 1.61011H1062.68L1105.22 107.82H1080.28L1071.62 85.5201H1028.93L1020.27 107.82H996.359L1038.9 1.61011H1038.91ZM1064.73 67.1801L1060.48 55.7401C1057.25 46.9401 1053.44 36.3801 1050.8 28.4501H1050.51C1047.58 36.8101 1043.91 46.9301 1040.39 55.8801L1035.99 67.1701H1064.74L1064.73 67.1801Z" fill="white"/>
<path d="M1128.69 22.0001H1094.36V1.61011H1186.34V22.0001H1152.01V107.82H1128.68V22.0001H1128.69Z" fill="white"/>
<path d="M1225.66 22.0001H1191.33V1.61011H1283.31V22.0001H1248.98V107.82H1225.65V22.0001H1225.66Z" fill="white"/>
<path d="M1295.2 1.61011H1318.53V107.82H1295.2V1.61011Z" fill="white"/>
<path d="M284.709 259.39V213.91H308.729L310.549 218.5C307.109 218.03 303.599 217.96 300.159 217.96H293.009V234.42H296.109C299.819 234.42 303.529 234.29 307.239 233.81L307.099 238.74C303.659 238.47 300.219 238.34 296.779 238.34C295.499 238.34 294.219 238.41 292.929 238.47V259.39H284.699H284.709Z" fill="white"/>
<path d="M350.029 259.39C349.959 257.1 348.948 255 348.678 252.71C345.578 257.57 341.258 260.2 335.518 260.2C324.318 260.2 317.979 252.64 317.979 241.78V213.91H326.548V241.98C326.548 248.39 329.379 254.8 336.599 254.8C343.819 254.8 348.678 249.13 348.678 241.84C348.678 235.63 348.749 229.49 348.749 223.28C348.749 220.18 348.748 217 348.678 213.9H357.048C357.048 225.37 356.648 236.84 356.648 248.24C356.648 251.95 356.719 255.66 356.779 259.37H350.029V259.39Z" fill="white"/>
<path d="M367.85 259.39V213.91H376.35V255.34H383.64C388.03 255.34 392.61 255.41 397 254.6L395.31 259.39H367.85Z" fill="white"/>
<path d="M401.719 259.39V213.91H410.219V255.34H417.509C421.899 255.34 426.479 255.41 430.869 254.6L429.179 259.39H401.719Z" fill="white"/>
<path d="M457.06 247.86C459.29 252.38 462.8 255.82 468.06 255.82C472.24 255.82 475.68 253.39 475.68 248.94C475.68 237.74 455.84 240.51 455.84 225.12C455.84 217.97 462.25 213.24 469 213.24C472.91 213.24 477.43 214.52 480.47 217.15L477.64 223.29C475.89 219.98 472.78 217.42 468.94 217.42C465.57 217.42 463.34 219.98 463.34 223.29C463.34 234.49 483.11 231.32 483.11 246.64C483.11 254.81 476.03 260.2 468.2 260.2C462.73 260.2 458.62 258.45 454.5 254.94L457.06 247.86Z" fill="white"/>
<path d="M501.189 259.39V217.96H485.809L486.819 213.91H525.419L525.489 217.96H509.629C509.629 231.79 509.559 245.56 509.559 259.39H501.189Z" fill="white"/>
<path d="M554.699 259.39C552.949 254.46 550.919 249.67 548.899 244.82H533.309L527.039 259.39H522.109L541.809 213.85H544.639C546.869 220.39 549.839 226.6 552.599 232.88C556.379 241.79 560.289 250.63 564.209 259.4H554.699V259.39ZM540.999 225.92L535.199 240.09H546.939L540.999 225.92Z" fill="white"/>
<path d="M606.118 256.76C601.258 259.12 596.268 260.2 590.868 260.2C577.648 260.2 566.238 250.69 566.238 236.99C566.238 223.29 576.698 213.1 590.258 213.1C597.078 213.1 602.198 214.99 607.668 218.97L605.108 225.72C602.278 220.12 597.618 217.42 591.348 217.42C580.278 217.42 575.358 227.2 575.358 236.99C575.358 247.65 581.098 256.15 592.428 256.15C597.828 256.15 603.698 252.91 607.408 249.13L606.128 256.75L606.118 256.76Z" fill="white"/>
<path d="M646.739 259.39C639.659 252.04 632.299 245.02 624.949 237.87C624.879 245.09 624.879 252.24 624.879 259.39H616.449C616.449 249.27 616.649 239.22 616.649 229.09C616.649 224.03 616.579 218.97 616.449 213.91H624.949V232.94C631.229 226.73 637.369 220.32 643.569 213.91H649.099C642.819 220.32 636.619 226.93 630.409 233.41C633.719 236.72 636.949 240.02 640.399 243.13C646.399 248.6 652.409 253.93 658.419 259.39H646.749H646.739Z" fill="white"/>
<path d="M682.779 259.39C682.779 244.21 682.709 229.09 682.709 213.91H697.219C699.989 213.91 702.749 213.91 705.449 214.31C716.039 215.86 725.149 224.77 725.149 235.77C725.149 248.39 716.779 257.7 704.229 259.05C701.189 259.39 698.159 259.39 695.189 259.39H682.769H682.779ZM691.209 218.3V254.8C693.099 255 694.989 255 696.879 255C699.919 255 703.489 255 706.329 253.92C714.159 251.02 715.979 244.74 715.979 237.12C715.979 228.89 711.999 220.93 703.499 218.9C701.139 218.36 698.709 218.29 696.279 218.29H691.219L691.209 218.3Z" fill="white"/>
<path d="M732.58 259.39V213.91H756.6L758.42 218.5C754.78 217.96 751.07 217.96 747.36 217.96H740.88V234.42H744.12C747.76 234.42 751.47 234.29 755.12 233.81L754.99 238.74C751.55 238.47 748.11 238.34 744.67 238.34C743.39 238.34 742.11 238.41 740.82 238.47V255.34H748.92C753.1 255.34 757.36 255.34 761.47 254.6L759.78 259.39H732.59H732.58Z" fill="white"/>
<path d="M782.039 260C781.429 258.25 780.829 256.49 780.149 254.8C774.889 241.03 768.949 227.54 763.479 213.91H772.449C776.629 225.79 781.489 237.39 786.209 249L800.509 213.91H804.419L785.389 259.99H782.019L782.039 260Z" fill="white"/>
<path d="M810.318 259.39V213.91H834.338L836.158 218.5C832.518 217.96 828.808 217.96 825.098 217.96H818.618V234.42H821.858C825.498 234.42 829.208 234.29 832.858 233.81L832.728 238.74C829.288 238.47 825.848 238.34 822.408 238.34C821.128 238.34 819.848 238.41 818.558 238.47V255.34H826.658C830.838 255.34 835.098 255.34 839.208 254.6L837.518 259.39H810.328H810.318Z" fill="white"/>
<path d="M847.289 259.39V213.91H855.789V255.34H863.079C867.469 255.34 872.049 255.41 876.439 254.6L874.749 259.39H847.289Z" fill="white"/>
<path d="M900.199 260C886.229 260 875.439 251.5 875.439 236.92C875.439 222.34 886.439 213.1 900.139 213.1C913.839 213.1 924.629 222.61 924.629 236.65C924.629 250.69 914.169 260 900.199 260ZM915.649 236.65C915.649 226.8 911.199 217.42 900.129 217.42C889.059 217.42 884.409 227.2 884.409 236.99C884.409 246.78 889.739 255.82 900.129 255.82C910.519 255.82 915.649 245.97 915.649 236.66V236.65Z" fill="white"/>
<path d="M930.84 259.39L930.77 213.91H943.46C951.15 213.91 959.049 217.82 959.049 226.46C959.049 235.77 950.48 238.74 942.59 238.74C941.78 238.74 940.9 238.74 940.09 238.67L941.299 236.78C947.309 236.78 951.02 232.87 951.02 226.93C951.02 220.99 946.97 217.96 941.51 217.96C940.7 217.96 939.89 217.96 939.08 218.03V259.39H930.849H930.84Z" fill="white"/>
<path d="M966.459 259.39V213.91H990.479L992.299 218.5C988.659 217.96 984.939 217.96 981.229 217.96H974.749V234.42H977.989C981.629 234.42 985.349 234.29 988.989 233.81L988.859 238.74C985.419 238.47 981.979 238.34 978.539 238.34C977.259 238.34 975.979 238.41 974.689 238.47V255.34H982.789C986.969 255.34 991.219 255.34 995.339 254.6L993.649 259.39H966.459Z" fill="white"/>
<path d="M1027.53 259.39C1023.41 252.51 1019.3 245.69 1015.25 238.74C1014.24 238.74 1013.22 238.74 1012.21 238.67L1013.42 236.78C1019.42 236.78 1023.14 232.87 1023.14 226.93C1023.14 220.99 1019.09 217.96 1013.62 217.96C1012.81 217.96 1012 217.96 1011.19 218.03V259.39H1002.96L1002.89 213.91H1015.58C1023.27 213.91 1031.17 217.82 1031.17 226.46C1031.17 232.06 1028.06 235.77 1022.87 237.46C1027.39 244.95 1032.52 252.03 1037.17 259.39H1027.52H1027.53Z" fill="white"/>
</svg>
